<svg version="1" xmlns="http://www.w3.org/2000/svg" width="666.667" height="666.667" viewBox="0 0 500.000000 500.000000"><path d="M73.5 61.8c.8 58.5 1.8 179.5 1.6 197.8-.2 18.4.7 27 4.8 45.9 1.8 8.3 6.1 23.2 8 28 11.6 28.4 19 41.8 32 58 30.9 38.6 75 65.3 124.3 75.5l10.7 2.2 12.4-3.5c16.9-4.8 30.1-9.8 43.3-16.3 37.3-18.3 69.6-48.6 88.4-82.9 1.8-3.3 4.1-7.4 5-9 4.5-8.3 15.6-36.1 15.3-38.5-.1-.3.4-1.4.9-2.4 1.2-2.3 5.4-19.7 6.5-27.1.5-2.8.7-19.9.7-38-.2-53.2-2.3-219.7-2.7-220.1-.1-.2-79.3-.5-176-.8L73 30.1l.5 31.7z"/></svg>